<svg xmlns="http://www.w3.org/2000/svg" width="29.254" height="28" viewBox="0 0 29.254 28">
  <g id="Group_12" data-name="Group 12" transform="translate(-330.978 -1347.998)">
    <path id="Icon_awesome-star" data-name="Icon awesome-star" d="M14.5.973l-3.571,7.24L2.94,9.378a1.751,1.751,0,0,0-.968,2.986L7.752,18,6.385,25.951a1.749,1.749,0,0,0,2.537,1.843l7.147-3.757,7.147,3.757a1.75,1.75,0,0,0,2.537-1.843L24.385,18l5.78-5.632A1.751,1.751,0,0,0,29.2,9.378L21.209,8.213,17.638.973a1.751,1.751,0,0,0-3.139,0Z" transform="translate(329.536 1347.999)" fill="#83ae9a"/>
  </g>
</svg>
