<?xml version="1.0" encoding="UTF-8"?>
<svg id="Layer_1" data-name="Layer 1" xmlns="http://www.w3.org/2000/svg" xmlns:xlink="http://www.w3.org/1999/xlink" viewBox="0 0 468 91.57">
  <defs>
    <style>
      .cls-1 {
        fill: #f3ddce;
      }

      .cls-2 {
        fill: #ef4566;
      }

      .cls-3 {
        clip-path: url(#clippath);
      }

      .cls-4 {
        fill: #83ae9a;
      }

      .cls-5 {
        fill: #f69a9a;
      }
    </style>
    <clipPath id="clippath">
      <path class="cls-4" d="M380.17,12.77c-2.79-2.85-7.43-3.5-12.44-3.5-7.88,0-14.48,2.87-19.62,8.53-4.76,5.24-8.26,11.6-10.4,18.89,0,.01,0,.02-.01,.03-.28,.95-1.54,1.04-1.99,.17-.52-1-1.18-1.88-2-2.64-2.14-1.99-4.94-3.01-8.32-3.01-2.27,0-5.15,.52-8,2.46-.4,.27-.91,.23-1.28-.08-1.89-1.6-4.41-2.45-7.43-2.45-1.1,0-2.16,.11-3.18,.32-.07,.01-.13,.02-.2,.02h-16.59c-.5,0-.94,.35-1.04,.84l-.14,.68c-1.4-.99-3.09-1.52-4.99-1.52-.88,0-1.75,.09-2.58,.27l.06-.27h-17.24c-.5,0-.94,.35-1.04,.84l-.86,4.05c-.2,.95-1.48,1.17-1.96,.32-2.88-5.12-8.1-5.84-10.81-5.84-1.29,0-2.52,.1-3.71,.31-.82,.14-1.48-.64-1.19-1.42l6.22-16.66c.26-.7-.26-1.44-1-1.44h-12.26c-.46,0-.86,.29-1.01,.72l-9.07,26.44c-.39,1.13-2.06,.86-2.07-.33l-.38-25.78c0-.58-.48-1.05-1.07-1.05h-15.76c-.46,0-.86,.29-1.01,.72l-9.07,26.44c-.39,1.13-2.06,.86-2.07-.33l-.38-25.82c0-.55-.43-1.01-.98-1.05l-2.67-.2c-1.59-.12-2.8-.18-3.7-.18-5.2,0-10.44,1.19-15.58,3.54-5.14,2.35-9.44,5.49-12.77,9.33-2.13,2.45-3.63,5.01-4.51,7.63-.15,.44-.54,.74-1.01,.74h-3.24c-.24,0-.47,.08-.66,.23l-3.11,2.45c-.78,.62-1.91-.08-1.7-1.06l3.12-14.66c.15-.72-.45-1.38-1.19-1.28l-16.39,2.21c-.45,.06-.81,.39-.9,.83l-3.46,16.22c-.2,.95-1.49,1.17-1.96,.32-2.87-5.16-8.12-5.88-10.83-5.88-5.38,0-9.95,1.79-13.56,5.31-1.08,1.05-2.06,2.18-2.96,3.37l-1.87-.3c-2.39-7.44-8.8-8.38-11.91-8.38-5.38,0-9.95,1.79-13.56,5.31-1.57,1.53-2.94,3.22-4.11,5.04-.36,.57-1.16,.64-1.63,.16-.42-.43-.87-.84-1.34-1.22s-.48-1.05-.1-1.51c.74-.88,1.41-1.81,2-2.79,2.06-3.41,3.1-7.01,3.1-10.72s-.99-6.88-2.94-9.87c-1.93-2.96-4.84-5.35-8.63-7.09-3.62-1.66-8.04-2.5-13.14-2.5-6.56,0-12.9,1.34-18.84,3.99-5.98,2.67-10.88,6.25-14.56,10.66-3.91,4.67-5.89,9.76-5.89,15.1,0,4.44,1.39,7.8,4.13,9.98,2.47,1.97,5.92,2.96,10.27,2.96h1.38l-7.89,36.91c-.14,.66,.36,1.29,1.04,1.29H31.76c.5,0,.94-.35,1.04-.84l.16-.75c.49,.43,1.03,.81,1.62,1.13,2.51,1.4,5.44,2.11,8.71,2.11,6.05,0,11.13-1.97,15.1-5.86,2.79-2.74,4.99-5.91,6.59-9.45,.25-.56,.91-.82,1.45-.53,2.3,1.23,5.02,1.86,8.16,1.86,3.64,0,7.04-1.11,10.12-3.29,1.74-1.24,3.3-2.79,4.66-4.62,.48-.65,1.49-.57,1.82,.17,.71,1.61,1.71,2.99,2.98,4.11,2.72,2.41,6.33,3.63,10.72,3.63,3.64,0,7.04-1.11,10.12-3.29,.51-.36,1-.75,1.48-1.17,.77-.67,1.94,.04,1.73,1.03l-.4,1.86c-.14,.66,.36,1.29,1.04,1.29h15.94c.5,0,.94-.35,1.04-.85l2.59-12.32c-.05,.59-.08,1.16-.08,1.71,0,4.59,1.9,7.3,3.5,8.77,2.23,2.05,5.32,3.09,9.2,3.09,7.49,0,13.04-5.21,16.49-15.49l1.3-3.87c.23-.69-.28-1.4-1.01-1.4h-8.96c-.44,0-.83,.27-.99,.67l-.25,.63c.08-.66,.12-1.35,.12-2.06,0-3.31-.97-6.13-2.88-8.38-.35-.42-.78-.85-1.3-1.27l.89-.62c.59,1.2,1.37,2.23,2.36,3.07,2.23,1.9,5.4,2.86,9.42,2.86h2.93c.59,0,1.07-.48,1.07-1.07v-2.93c0-1-.34-1.78-.92-2.98-.03-.07-.06-.15-.08-.22-.06-.27-.19-1.01-.19-2.56,0-2.79,.45-5.18,1.37-7.26l.03-.02h-.02c.34-.78,.75-1.51,1.22-2.2,.11-.16,.22-.31,.34-.47,.61-.81,1.9-.41,1.93,.61l1.2,51.42c.01,.58,.49,1.04,1.07,1.04h17.12c.44,0,.84-.28,1-.69l7.65-20.48c.41-1.1,2.04-.83,2.06,.35l.47,19.79c.01,.58,.49,1.04,1.07,1.04h17.12c.44,0,.84-.28,1-.69l4.75-12.73c.35,.41,.72,.81,1.13,1.17,2.72,2.41,6.33,3.63,10.72,3.63,3.64,0,7.04-1.11,10.12-3.29,.51-.36,1-.75,1.48-1.17,.77-.67,1.94,.04,1.73,1.03l-.4,1.87c-.14,.66,.37,1.29,1.04,1.29h15.94c.5,0,.94-.35,1.04-.85l5.54-26.31c.1,.16,.2,.32,.3,.46,.78,1.1,2.33,2.4,5.29,2.4,.11,0,.21,0,.32,0,.69-.02,1.22,.6,1.07,1.28l-4.61,21.72c-.14,.66,.37,1.29,1.04,1.29h32.98c.5,0,.94-.35,1.04-.85l1.07-5.07c.21-1,1.6-1.18,2.01-.25,.48,1.07,1.11,2.06,1.91,2.97,2.1,2.39,5.19,3.6,9.18,3.6,2.81,0,5.52-.85,8.09-2.52,.5-.32,1.17-.16,1.47,.35,.63,1.08,1.35,2.05,2.16,2.93,3.72,4.01,9.37,6.04,16.79,6.04,3.21,0,6.64-.62,10.17-1.85,3.57-1.25,6.96-3.22,10.06-5.88,.53-.46,1.04-.93,1.53-1.42,.38-.38,.98-.47,1.41-.15,2.22,1.64,4.88,2.5,7.81,2.5,3.1,0,5.85-.84,8.16-2.51,.32-.23,.64-.47,.95-.73,.18,.19,.37,.38,.56,.56,.36,.33,.75,.64,1.15,.91,.43,.29,.58,.87,.34,1.33-.83,1.56-1.29,3.34-1.35,5.33-.11,3.43,1.34,6.79,3.97,8.99,2.34,1.96,5.08,2.95,8.16,2.95,3.67,0,7.03-1.11,9.98-3.31,3.1-2.31,5.15-6.11,6.28-11.58l1.62-7.62c.2-.94,1.43-1.15,1.94-.34s1.15,1.6,1.86,2.27c2.64,2.48,6.23,3.74,10.67,3.74,9.01,0,16.55-4.95,22.4-14.71l2.67-4.44c.43-.71-.09-1.61-.91-1.61h-8.83c-.3,0-.59,.13-.79,.35l-.87,.97c-1.87,2.08-3.57,3.62-5.04,4.57-1.12,.73-2.49,1.08-4.2,1.08-.38,0-.65-.03-.83-.06-.05-.21-.1-.54-.12-1.03,2.02-.46,3.96-1.19,5.81-2.18,3-1.61,5.45-3.79,7.28-6.48,1.92-2.83,2.9-5.98,2.9-9.36,0-3.77-1.39-6.68-3.93-8.5-.46-.33-.57-.96-.27-1.43l10.04-15.69c.45-.71-.06-1.64-.9-1.64h-14.45c-.41,0-.78,.23-.96,.6l-3.36,6.98c-.4,.84-1.61,.79-1.95-.08-.94-2.44-2.77-4.49-5.42-5.95-1.71-.95-3.66-1.44-5.62-1.48-3.81-.08-7.32,1.04-10.44,3.32-3.13,2.3-5.29,6.2-6.41,11.57l-.3,1.44c-.1,.49-.54,.84-1.04,.84h-16.72c-.07,0-.13,0-.2-.02-.98-.22-2.07-.32-3.28-.32-4.78,0-8.95,1.69-12.4,5.02-3.12,3.02-5.5,6.73-7.06,11.04-1.51,4.17-2.27,8.24-2.27,12.09,0,.06,0,.12,0,.19-1.45,1.68-3.07,3-4.95,3.98-2.23,1.16-4.6,1.72-7.26,1.72-2.33,0-3.84-.51-4.5-1.52-.7-1.07,.6,1.41-2.28-1.73-7.56-8.27,6.62-41.61,10.9-41.4M20.18,42.11s0,0,0,0c-.01-.03-.29-.77-.29-3.3,0-4.29,.94-7.8,2.88-10.72,.19-.29,.39-.58,.6-.86l-3.18,14.88Z"/>
    </clipPath>
  </defs>
  <g>
    <path class="cls-4" d="M380.17,12.77c-2.79-2.85-7.43-3.5-12.44-3.5-7.88,0-14.48,2.87-19.62,8.53-4.76,5.24-8.26,11.6-10.4,18.89,0,.01,0,.02-.01,.03-.28,.95-1.54,1.04-1.99,.17-.52-1-1.18-1.88-2-2.64-2.14-1.99-4.94-3.01-8.32-3.01-2.27,0-5.15,.52-8,2.46-.4,.27-.91,.23-1.28-.08-1.89-1.6-4.41-2.45-7.43-2.45-1.1,0-2.16,.11-3.18,.32-.07,.01-.13,.02-.2,.02h-16.59c-.5,0-.94,.35-1.04,.84l-.14,.68c-1.4-.99-3.09-1.52-4.99-1.52-.88,0-1.75,.09-2.58,.27l.06-.27h-17.24c-.5,0-.94,.35-1.04,.84l-.86,4.05c-.2,.95-1.48,1.17-1.96,.32-2.88-5.12-8.1-5.84-10.81-5.84-1.29,0-2.52,.1-3.71,.31-.82,.14-1.48-.64-1.19-1.42l6.22-16.66c.26-.7-.26-1.44-1-1.44h-12.26c-.46,0-.86,.29-1.01,.72l-9.07,26.44c-.39,1.13-2.06,.86-2.07-.33l-.38-25.78c0-.58-.48-1.05-1.07-1.05h-15.76c-.46,0-.86,.29-1.01,.72l-9.07,26.44c-.39,1.13-2.06,.86-2.07-.33l-.38-25.82c0-.55-.43-1.01-.98-1.05l-2.67-.2c-1.59-.12-2.8-.18-3.7-.18-5.2,0-10.44,1.19-15.58,3.54-5.14,2.35-9.44,5.49-12.77,9.33-2.13,2.45-3.63,5.01-4.51,7.63-.15,.44-.54,.74-1.01,.74h-3.24c-.24,0-.47,.08-.66,.23l-3.11,2.45c-.78,.62-1.91-.08-1.7-1.06l3.12-14.66c.15-.72-.45-1.38-1.19-1.28l-16.39,2.21c-.45,.06-.81,.39-.9,.83l-3.46,16.22c-.2,.95-1.49,1.17-1.96,.32-2.87-5.16-8.12-5.88-10.83-5.88-5.38,0-9.95,1.79-13.56,5.31-1.08,1.05-2.06,2.18-2.96,3.37l-1.87-.3c-2.39-7.44-8.8-8.38-11.91-8.38-5.38,0-9.95,1.79-13.56,5.31-1.57,1.53-2.94,3.22-4.11,5.04-.36,.57-1.16,.64-1.63,.16-.42-.43-.87-.84-1.34-1.22s-.48-1.05-.1-1.51c.74-.88,1.41-1.81,2-2.79,2.06-3.41,3.1-7.01,3.1-10.72s-.99-6.88-2.94-9.87c-1.93-2.96-4.84-5.35-8.63-7.09-3.62-1.66-8.04-2.5-13.14-2.5-6.56,0-12.9,1.34-18.84,3.99-5.98,2.67-10.88,6.25-14.56,10.66-3.91,4.67-5.89,9.76-5.89,15.1,0,4.44,1.39,7.8,4.13,9.98,2.47,1.97,5.92,2.96,10.27,2.96h1.38l-7.89,36.91c-.14,.66,.36,1.29,1.04,1.29H31.76c.5,0,.94-.35,1.04-.84l.16-.75c.49,.43,1.03,.81,1.62,1.13,2.51,1.4,5.44,2.11,8.71,2.11,6.05,0,11.13-1.97,15.1-5.86,2.79-2.74,4.99-5.91,6.59-9.45,.25-.56,.91-.82,1.45-.53,2.3,1.23,5.02,1.86,8.16,1.86,3.64,0,7.04-1.11,10.12-3.29,1.74-1.24,3.3-2.79,4.66-4.62,.48-.65,1.49-.57,1.82,.17,.71,1.61,1.71,2.99,2.98,4.11,2.72,2.41,6.33,3.63,10.72,3.63,3.64,0,7.04-1.11,10.12-3.29,.51-.36,1-.75,1.48-1.17,.77-.67,1.94,.04,1.73,1.03l-.4,1.86c-.14,.66,.36,1.29,1.04,1.29h15.94c.5,0,.94-.35,1.04-.85l2.59-12.32c-.05,.59-.08,1.16-.08,1.71,0,4.59,1.9,7.3,3.5,8.77,2.23,2.05,5.32,3.09,9.2,3.09,7.49,0,13.04-5.21,16.49-15.49l1.3-3.87c.23-.69-.28-1.4-1.01-1.4h-8.96c-.44,0-.83,.27-.99,.67l-.25,.63c.08-.66,.12-1.35,.12-2.06,0-3.31-.97-6.13-2.88-8.38-.35-.42-.78-.85-1.3-1.27l.89-.62c.59,1.2,1.37,2.23,2.36,3.07,2.23,1.9,5.4,2.86,9.42,2.86h2.93c.59,0,1.07-.48,1.07-1.07v-2.93c0-1-.34-1.78-.92-2.98-.03-.07-.06-.15-.08-.22-.06-.27-.19-1.01-.19-2.56,0-2.79,.45-5.18,1.37-7.26l.03-.02h-.02c.34-.78,.75-1.51,1.22-2.2,.11-.16,.22-.31,.34-.47,.61-.81,1.9-.41,1.93,.61l1.2,51.42c.01,.58,.49,1.04,1.07,1.04h17.12c.44,0,.84-.28,1-.69l7.65-20.48c.41-1.1,2.04-.83,2.06,.35l.47,19.79c.01,.58,.49,1.04,1.07,1.04h17.12c.44,0,.84-.28,1-.69l4.75-12.73c.35,.41,.72,.81,1.13,1.17,2.72,2.41,6.33,3.63,10.72,3.63,3.64,0,7.04-1.11,10.12-3.29,.51-.36,1-.75,1.48-1.17,.77-.67,1.94,.04,1.73,1.03l-.4,1.87c-.14,.66,.37,1.29,1.04,1.29h15.94c.5,0,.94-.35,1.04-.85l5.54-26.31c.1,.16,.2,.32,.3,.46,.78,1.1,2.33,2.4,5.29,2.4,.11,0,.21,0,.32,0,.69-.02,1.22,.6,1.07,1.28l-4.61,21.72c-.14,.66,.37,1.29,1.04,1.29h32.98c.5,0,.94-.35,1.04-.85l1.07-5.07c.21-1,1.6-1.18,2.01-.25,.48,1.07,1.11,2.06,1.91,2.97,2.1,2.39,5.19,3.6,9.18,3.6,2.81,0,5.52-.85,8.09-2.52,.5-.32,1.17-.16,1.47,.35,.63,1.08,1.35,2.05,2.16,2.93,3.72,4.01,9.37,6.04,16.79,6.04,3.21,0,6.64-.62,10.17-1.85,3.57-1.25,6.96-3.22,10.06-5.88,.53-.46,1.04-.93,1.53-1.42,.38-.38,.98-.47,1.41-.15,2.22,1.64,4.88,2.5,7.81,2.5,3.1,0,5.85-.84,8.16-2.51,.32-.23,.64-.47,.95-.73,.18,.19,.37,.38,.56,.56,.36,.33,.75,.64,1.15,.91,.43,.29,.58,.87,.34,1.33-.83,1.56-1.29,3.34-1.35,5.33-.11,3.43,1.34,6.79,3.97,8.99,2.34,1.96,5.08,2.95,8.16,2.95,3.67,0,7.03-1.11,9.98-3.31,3.1-2.31,5.15-6.11,6.28-11.58l1.62-7.62c.2-.94,1.43-1.15,1.94-.34s1.15,1.6,1.86,2.27c2.64,2.48,6.23,3.74,10.67,3.74,9.01,0,16.55-4.95,22.4-14.71l2.67-4.44c.43-.71-.09-1.61-.91-1.61h-8.83c-.3,0-.59,.13-.79,.35l-.87,.97c-1.87,2.08-3.57,3.62-5.04,4.57-1.12,.73-2.49,1.08-4.2,1.08-.38,0-.65-.03-.83-.06-.05-.21-.1-.54-.12-1.03,2.02-.46,3.96-1.19,5.81-2.18,3-1.61,5.45-3.79,7.28-6.48,1.92-2.83,2.9-5.98,2.9-9.36,0-3.77-1.39-6.68-3.93-8.5-.46-.33-.57-.96-.27-1.43l10.04-15.69c.45-.71-.06-1.64-.9-1.64h-14.45c-.41,0-.78,.23-.96,.6l-3.36,6.98c-.4,.84-1.61,.79-1.95-.08-.94-2.44-2.77-4.49-5.42-5.95-1.71-.95-3.66-1.44-5.62-1.48-3.81-.08-7.32,1.04-10.44,3.32-3.13,2.3-5.29,6.2-6.41,11.57l-.3,1.44c-.1,.49-.54,.84-1.04,.84h-16.72c-.07,0-.13,0-.2-.02-.98-.22-2.07-.32-3.28-.32-4.78,0-8.95,1.69-12.4,5.02-3.12,3.02-5.5,6.73-7.06,11.04-1.51,4.17-2.27,8.24-2.27,12.09,0,.06,0,.12,0,.19-1.45,1.68-3.07,3-4.95,3.98-2.23,1.16-4.6,1.72-7.26,1.72-2.33,0-3.84-.51-4.5-1.52-.7-1.07,.6,1.41-2.28-1.73-7.56-8.27,6.62-41.61,10.9-41.4M20.18,42.11s0,0,0,0c-.01-.03-.29-.77-.29-3.3,0-4.29,.94-7.8,2.88-10.72,.19-.29,.39-.58,.6-.86l-3.18,14.88Z"/>
    <g class="cls-3">
      <rect class="cls-4" x="19.96" y="27.54" width="3.48" height="14.88"/>
      <rect class="cls-4" x="2.92" y="7.02" width=".87" height="84.55"/>
      <rect class="cls-4" x="3.78" y="7.02" width="463.93" height="84.55"/>
      <rect class="cls-4" x="467.71" y="7.02" width=".28" height="84.55"/>
    </g>
  </g>
  <path class="cls-5" d="M457.7,45.73c2.04-3,3.07-6.33,3.07-9.92,0-4.11-1.59-7.32-4.4-9.31,0,0,0,0,0,0l10.91-17.04c.52-.82-.06-1.9-1.04-1.9h-16.5c-.47,0-.9,.27-1.11,.7l-3.66,7.59s0,0,0,0c-1.04-2.83-3.16-5.2-6.32-6.82-1.73-.89-3.67-1.35-5.62-1.39-4.05-.1-7.79,1.09-11.11,3.51-3.34,2.45-5.63,6.55-6.8,12.17l-.11,.51c-.12,.57-.62,.98-1.2,.98h-15.66c-.08,0-.15-.02-.23-.02-1.02-.21-2.14-.32-3.37-.32-5.05,0-9.46,1.78-13.1,5.3-3.23,3.12-5.69,6.96-7.3,11.42-1.46,4.05-2.24,8.01-2.32,11.78l-.34,.84c-1.22,1.28-2.56,2.31-4.09,3.1-2.08,1.08-4.3,1.61-6.79,1.61-1.11,0-3.06-.14-3.66-1.07-.62-.96-1.36-2.94-1.36-6.96,0-5.21,.77-10.73,2.29-16.41,.91-3.38,1.98-6.41,3.21-9.07,.36-.77,5.31-6.94,5.7-2.07,.13,1.66-1.04,3.17-1.15,4.84h0c.79,3.72,4.79,3.67,8.32,3.67s6.65-1.49,8.53-4.2c1.53-2.21,2.31-5.07,2.31-8.49,0-6.81-3.22-10.56-5.92-12.5-3.42-2.45-7.8-3.69-13.02-3.69-8.17,0-15.02,2.98-20.36,8.86-4.86,5.36-8.44,11.84-10.62,19.28-.02,.07-.04,.14-.06,.21-.58-1.17-1.34-2.21-2.3-3.1-2.33-2.17-5.36-3.28-9-3.28-2.27,0-5.09,.48-7.92,2.22l-1.33-.06c-1.99-1.45-4.52-2.23-7.44-2.23-1.1,0-2.18,.11-3.22,.32l-.22,.02h-18.2s-.2,.95-.2,.95c-1.29-.62-2.73-.95-4.3-.95-.44,0-.88,.02-1.31,.06v-.06s-19.13,0-19.13,0c-.58,0-1.08,.41-1.2,.98l-1.05,4.95s0,0,0,0c-2.28-4.21-6.33-6.54-11.74-6.54-1.39,0-2.72,.12-4,.34,0,0,0,0,0,0l6.67-17.89c.3-.8-.29-1.66-1.15-1.66h-14.06c-.53,0-.99,.33-1.16,.83l-7.1,20.68c-.45,1.31-2.38,1-2.4-.38l-.29-19.92c0-.67-.56-1.21-1.23-1.21h-17.18c-.53,0-.99,.33-1.16,.83l-7.1,20.68c-.45,1.31-2.38,1-2.4-.38l-.29-19.9c0-.64-.5-1.16-1.14-1.21l-3.43-.26c-1.63-.12-2.86-.18-3.77-.18-5.34,0-10.73,1.22-16,3.64-5.27,2.41-9.68,5.64-13.11,9.59-2.23,2.57-3.8,5.26-4.71,8.03,0,0,0,0,0,0h-2.55c-.94,0-1.85,.32-2.58,.9h0c-.91,.71-2.21-.1-1.97-1.22l2.7-12.67c.18-.83-.52-1.59-1.37-1.48l-18.15,2.45c-.52,.07-.93,.46-1.04,.96l-3.63,17.03s0,0,0,0c-2.27-4.24-6.33-6.6-11.76-6.6s-10.45,1.88-14.26,5.6c-.65,.64-1.27,1.3-1.86,1.98s-1.67,.57-2.04-.23c-2.18-4.71-6.39-7.35-12.14-7.35s-10.45,1.88-14.26,5.6c-1.37,1.33-2.58,2.78-3.65,4.32-.33,.48-1,.56-1.43,.17,0,0,0,0-.01-.01-.37-.34-.4-.89-.09-1.28,.57-.72,1.09-1.48,1.57-2.27,2.16-3.57,3.25-7.35,3.25-11.24s-1.04-7.26-3.1-10.41c-2.04-3.12-5.09-5.63-9.05-7.45-3.76-1.72-8.32-2.59-13.55-2.59-6.71,0-13.18,1.37-19.24,4.08-6.12,2.73-11.14,6.41-14.92,10.93C2.06,19.87,0,25.17,0,30.76c0,5.93,2.45,9.13,4.51,10.76,2.65,2.11,6.31,3.18,10.89,3.18h.14l-7.85,36.71c-.16,.77,.42,1.49,1.2,1.49H31.59l.19-.87c.15,.1,.31,.19,.47,.28,2.66,1.49,5.75,2.24,9.2,2.24,6.32,0,11.63-2.07,15.8-6.14,2.6-2.54,4.7-5.45,6.3-8.68,.3-.6,1-.9,1.62-.63,2.21,.97,4.74,1.47,7.59,1.47,3.85,0,7.45-1.17,10.7-3.48,1.38-.98,2.64-2.14,3.79-3.47l2,.19c.66,1.08,1.47,2.05,2.41,2.88,2.91,2.57,6.74,3.88,11.39,3.88,3.85,0,7.45-1.17,10.7-3.48,.58-.42,1.15-.86,1.69-1.34l-.65,3.06c-.16,.77,.42,1.49,1.2,1.49h17.65c.58,0,1.08-.41,1.2-.98l1.42-6.73s0,0,0,0c.76,2.22,1.98,3.76,3.07,4.76,2.42,2.23,5.74,3.36,9.88,3.36,5.48,0,12.96-2.81,17.44-16.18l1.66-4.97c.27-.8-.33-1.62-1.17-1.62h-10.24s0,0,0,0c-.01-.92-.1-1.8-.25-2.65-.17-.94,.72-1.68,1.62-1.37,1.77,.61,3.82,.92,6.12,.92h3.77c.68,0,1.23-.55,1.23-1.23v-3.77c0-1.16-.36-2.04-.96-3.3-.05-.1-.08-.2-.1-.3-.05-.31-.13-.96-.13-2.17,0-2.38,.35-4.44,1.04-6.25,.09-.23,.25-.43,.45-.57l1.41-.98,1.19,50.72c.02,.67,.56,1.2,1.23,1.2h18.52c.51,0,.97-.32,1.15-.8l5.73-15.36c.47-1.27,2.35-.95,2.38,.4l.34,14.56c.02,.67,.56,1.2,1.23,1.2h18.52c.51,0,.97-.32,1.15-.8l4.4-11.79s.06,.06,.09,.09c2.91,2.57,6.74,3.88,11.39,3.88,3.85,0,7.45-1.17,10.7-3.48,.58-.42,1.15-.86,1.69-1.34l-.65,3.06c-.16,.77,.42,1.49,1.2,1.49h17.65c.58,0,1.08-.41,1.2-.98l4.89-23.23c.17-.79,1.02-1.2,1.75-.85,.94,.46,2.14,.76,3.66,.76,.15,0,.28-.02,.43-.02l-4.84,22.83c-.16,.77,.42,1.49,1.2,1.49h34.68c.58,0,1.08-.41,1.2-.98l1.26-5.96s0,0,0,0c.53,1.24,1.24,2.38,2.14,3.41,2.3,2.62,5.64,3.95,9.93,3.95,2.66,0,5.24-.71,7.69-2.1l1.6,.39c.51,.77,1.08,1.49,1.69,2.16,3.92,4.22,9.82,6.36,17.52,6.36,3.33,0,6.86-.64,10.5-1.91,3.7-1.29,7.19-3.33,10.38-6.06,.58-.5,1.13-1.03,1.66-1.57,0,0,0,0,0,0,2.4,1.79,5.27,2.74,8.44,2.74s6.26-.91,8.75-2.7c.1-.07,.19-.14,.29-.21,.39,.36,.81,.69,1.25,.98-.84,1.56-1.33,3.32-1.45,5.27-.25,3.9,1.29,7.78,4.28,10.29,2.5,2.1,5.55,3.2,8.82,3.2,3.89,0,7.45-1.18,10.58-3.51,3.3-2.46,5.48-6.46,6.66-12.18l1.66-7.78s0,0,0,0c.59,.97,1.29,1.85,2.1,2.62,2.83,2.66,6.66,4.01,11.36,4.01,9.39,0,17.21-5.11,23.26-15.19l3.42-5.71c.49-.82-.1-1.86-1.06-1.86h-9.15c.32-.4,.62-.8,.9-1.23Z"/>
  <g>
    <g>
      <path class="cls-2" d="M51.84,38.07c3.11-1.75,5.51-4.02,7.19-6.8,1.68-2.79,2.53-5.67,2.53-8.65,0-2.79-.76-5.35-2.29-7.68-1.52-2.33-3.84-4.21-6.95-5.64-3.11-1.42-6.93-2.14-11.47-2.14-6.03,0-11.76,1.21-17.2,3.64s-9.82,5.62-13.12,9.57c-3.3,3.95-4.96,8.13-4.96,12.54,0,3.18,.87,5.46,2.62,6.85,1.75,1.39,4.34,2.09,7.78,2.09,0-.13-.23-.66-.68-1.6-.45-.94-.68-2.61-.68-5.01,0-5.05,1.18-9.36,3.55-12.93,2.36-3.56,5.43-6.24,9.19-8.02,3.76-1.78,7.61-2.67,11.57-2.67,4.34,0,7.57,1.01,9.67,3.01,2.1,2.01,3.16,4.5,3.16,7.48,0,2.46-.65,4.91-1.94,7.34s-3.01,4.44-5.15,6.03c-2.14,1.59-4.44,2.38-6.9,2.38h-.58l4.57-21.58-14.39,1.94-13.22,61.82h14l7.97-37.23c1.23-.19,2.72-.29,4.47-.29,6.16,0,9.23,4.12,9.23,12.34,0,4.41-.79,8.42-2.38,12.05-1.59,3.63-4,5.44-7.24,5.44-1.17,0-2.25-.26-3.26-.78-1-.52-2.09-1.42-3.26-2.72-.84,2.07-1.26,3.95-1.26,5.64,0,2.66,.95,4.52,2.87,5.59,1.91,1.07,4.16,1.6,6.76,1.6,4.99,0,9.09-1.57,12.3-4.71,3.21-3.14,5.51-6.89,6.9-11.23,1.39-4.34,2.09-8.36,2.09-12.05,0-3.95-.94-7.37-2.82-10.25-1.88-2.88-4.76-4.68-8.65-5.39Z"/>
      <path class="cls-2" d="M157.09,59.7c-.83,.99-1.93,1.48-3.31,1.48-1.79,0-2.69-.85-2.69-2.55,0-.64,.11-1.38,.34-2.21l.76-3.45c.18-.78,.28-1.66,.28-2.62,0-2.35-.64-4.28-1.93-5.8-1.29-1.52-3.17-2.28-5.66-2.28-.83,0-1.59,.09-2.28,.28l13.8-9.59h-6.83l-13.32,10.49,5.17-24.29-10.21,1.38-4.62,21.65c-.1,.04-.19,.08-.28,.12-1.98,.81-3.73,1.21-5.24,1.21-.37,0-.62-.02-.76-.07v-.07c0-7.36-2.94-11.04-8.83-11.04-4.33,0-7.91,1.39-10.76,4.17-1.73,1.69-3.16,3.57-4.32,5.63-.13,.05-.25,.11-.37,.16-1.98,.81-3.73,1.21-5.24,1.21-.37,0-.62-.02-.76-.07v-.07c0-7.36-2.94-11.04-8.83-11.04-4.33,0-7.91,1.39-10.76,4.17-2.85,2.78-4.92,6.08-6.21,9.9-1.29,3.82-1.93,7.29-1.93,10.42,0,3.77,.99,6.53,2.97,8.28,1.98,1.75,4.67,2.62,8.07,2.62,2.8,0,5.4-.85,7.8-2.55,2.39-1.7,4.35-4.12,5.87-7.25,1.52-3.13,2.46-6.79,2.83-10.97,1.75-.29,3.4-.72,4.96-1.28-.09,.24-.19,.48-.27,.73-1.29,3.82-1.93,7.29-1.93,10.42,0,3.77,.99,6.53,2.97,8.28,1.98,1.75,4.67,2.62,8.07,2.62,2.8,0,5.4-.85,7.8-2.55,2.39-1.7,4.35-4.12,5.87-7.25,1.52-3.13,2.46-6.79,2.83-10.97,2.07-.34,4.01-.88,5.82-1.61l-4.71,22.1h9.94l3.59-17.04c1.06-.87,1.99-1.52,2.79-1.93s1.58-.62,2.31-.62c1.66,0,2.48,1.1,2.48,3.31,0,.92-.09,1.77-.28,2.55l-.55,2.69c-.28,1.29-.41,2.48-.41,3.59,0,2.53,.74,4.47,2.21,5.83,1.47,1.36,3.63,2.04,6.49,2.04,5.61,0,9.84-4.25,12.7-12.76h-2.9c-.83,2.07-1.66,3.6-2.48,4.59Zm-73-12.52c-.37,2.67-.97,5.1-1.79,7.28s-1.79,3.91-2.9,5.17c-1.1,1.27-2.21,1.9-3.31,1.9-1.33,0-2.25-.38-2.76-1.14-.51-.76-.76-2.24-.76-4.45,0-2.35,.44-5.06,1.31-8.14,.87-3.08,2.02-5.73,3.45-7.94,1.42-2.21,2.9-3.31,4.42-3.31,.92,0,1.56,.29,1.93,.86,.37,.58,.6,1.62,.69,3.14-1.43,.6-2.14,1.84-2.14,3.73,0,1.66,.62,2.62,1.86,2.9Zm30.29,0c-.37,2.67-.97,5.1-1.79,7.28s-1.79,3.91-2.9,5.17c-1.1,1.27-2.21,1.9-3.31,1.9-1.33,0-2.25-.38-2.76-1.14-.51-.76-.76-2.24-.76-4.45,0-2.35,.44-5.06,1.31-8.14,.87-3.08,2.02-5.73,3.45-7.94,1.42-2.21,2.9-3.31,4.42-3.31,.92,0,1.56,.29,1.93,.86,.37,.58,.6,1.62,.69,3.14-1.43,.6-2.14,1.84-2.14,3.73,0,1.66,.62,2.62,1.86,2.9Z"/>
      <path class="cls-2" d="M237.01,12.14l-17.82,51.94-.76-51.94h-10.78l-17.82,51.94-.76-52.19c-1.47-.11-2.6-.17-3.39-.17-4.64,0-9.28,1.06-13.92,3.18-4.64,2.12-8.45,4.89-11.42,8.32-2.97,3.42-4.46,6.95-4.46,10.57,0,2.94,.75,5.05,2.25,6.32s3.78,1.91,6.83,1.91c0-.11-.2-.58-.59-1.4-.4-.82-.59-2.28-.59-4.37,0-4.64,1.1-8.56,3.31-11.75,2.21-3.2,5.32-5.56,9.34-7.09l1.36,57.97h12.22l16.12-43.2,1.02,43.2h12.22l23.59-63.23h-5.94Z"/>
      <path class="cls-2" d="M286.05,37.14c0-1.43-.43-2.64-1.28-3.66-.85-1.01-2.01-1.52-3.48-1.52s-2.84,.37-4.11,1.1c-1.27,.74-2.68,1.79-4.24,3.17l.9-4.28h-9.94l-1.96,9.24c-.08,.04-.16,.07-.25,.11-1.98,.81-3.73,1.21-5.24,1.21-.37,0-.62-.02-.76-.07v-.07c0-7.36-2.94-11.04-8.83-11.04-4.33,0-7.91,1.39-10.76,4.17-2.85,2.78-4.92,6.08-6.21,9.9-1.29,3.82-1.93,7.29-1.93,10.42,0,3.77,.99,6.53,2.97,8.28,1.98,1.75,4.67,2.62,8.07,2.62,2.8,0,5.4-.85,7.8-2.55,2.39-1.7,4.35-4.12,5.87-7.25,1.52-3.13,2.46-6.79,2.83-10.97,2.06-.34,3.98-.88,5.79-1.59l-4.68,22.09h9.94l5.52-26.22c1.06-.97,1.92-1.64,2.59-2.04,.67-.39,1.48-.59,2.45-.59,.37,0,.62,.14,.76,.41,.14,.28,.28,.71,.41,1.31,.18,.92,.45,1.62,.79,2.1,.34,.48,1.02,.72,2.04,.72,1.56,0,2.78-.51,3.66-1.52,.87-1.01,1.31-2.18,1.31-3.52Zm-36.29,9.04c-.37,2.67-.97,5.1-1.79,7.28s-1.79,3.91-2.9,5.17c-1.1,1.27-2.21,1.9-3.31,1.9-1.33,0-2.25-.38-2.76-1.14-.51-.76-.76-2.24-.76-4.45,0-2.35,.44-5.06,1.31-8.14,.87-3.08,2.02-5.73,3.45-7.94,1.42-2.21,2.9-3.31,4.42-3.31,.92,0,1.56,.29,1.93,.86,.37,.58,.6,1.62,.69,3.14-1.43,.6-2.14,1.84-2.14,3.73,0,1.66,.62,2.62,1.86,2.9Z"/>
      <path class="cls-2" d="M334.56,58.7c-.83,.99-1.93,1.48-3.31,1.48-1.01,0-1.72-.25-2.14-.76-.41-.5-.62-1.22-.62-2.14,0-.78,.15-1.85,.45-3.21,.3-1.36,.63-2.75,1-4.17,.6-2.35,1.06-4.33,1.38-5.97,.32-1.63,.48-3.12,.48-4.45,0-2.62-.69-4.58-2.07-5.87-1.38-1.29-3.24-1.93-5.59-1.93-3.86,0-7.06,1.96-9.59,5.86-.69-3.96-3.06-5.93-7.11-5.93-3.27,0-6.07,1.31-8.42,3.93l.76-3.59h-9.94l-7.31,34.5h9.94l4.69-22.15c.55-1.93,1.3-3.48,2.24-4.66,.94-1.17,2.06-1.76,3.35-1.76,1.38,0,2.07,1.01,2.07,3.04,0,.6-.07,1.17-.21,1.72l-5.04,23.8h9.94l4.69-22.15c.55-1.89,1.29-3.42,2.21-4.59,.92-1.17,1.98-1.76,3.17-1.76,1.66,0,2.48,1.17,2.48,3.52,0,.97-.16,2.23-.48,3.79-.32,1.56-.67,3.15-1.03,4.76-.09,.32-.27,1.06-.52,2.21-.25,1.15-.5,2.33-.72,3.55-.23,1.22-.35,2.31-.35,3.28,0,2.21,.66,4.06,1.97,5.55,1.31,1.5,3.37,2.24,6.18,2.24,2.39,0,4.7-.86,6.93-2.59,2.23-1.73,4.2-5.12,5.9-10.18h-2.9c-.83,2.07-1.66,3.6-2.48,4.59Z"/>
      <path class="cls-2" d="M369.81,26.41c1.17,1.45,2.75,2.17,4.76,2.17s3.48-.68,4.43-2.05c.95-1.36,1.42-3.24,1.42-5.64,0-3.79-1.28-6.6-3.84-8.43-2.56-1.84-5.93-2.76-10.1-2.76-6.74,0-12.29,2.41-16.66,7.22-4.37,4.82-7.54,10.59-9.52,17.33-1.98,6.74-2.97,13.03-2.97,18.87,0,7.35,1.47,12.61,4.43,15.78,2.95,3.17,7.57,4.76,13.86,4.76,2.78,0,5.73-.54,8.85-1.63,3.12-1.09,6.04-2.8,8.77-5.13,2.73-2.34,4.79-5.26,6.18-8.77l-1.92-.84c-2,2.67-4.4,4.73-7.18,6.18-2.78,1.45-5.82,2.17-9.1,2.17-3.79,0-6.4-1.11-7.85-3.34s-2.17-5.46-2.17-9.69c0-5.68,.82-11.58,2.46-17.7,1.64-6.12,3.8-11.2,6.47-15.24,2.67-4.04,5.48-6.05,8.43-6.05,1.78,0,3.08,.47,3.88,1.42,.81,.95,1.21,2.17,1.21,3.67,0,1.61-.39,3.17-1.17,4.68-.78,1.5-1.67,2.51-2.67,3.01Z"/>
      <path class="cls-2" d="M434.41,31.96h-5.04l1.17-5.45c.41-2.07,1.08-3.53,2-4.38,.92-.85,1.86-1.28,2.83-1.28,.74,0,1.36,.21,1.86,.62,.51,.41,.76,.99,.76,1.72,0,.23-.05,.85-.14,1.86h3.24c.14-.83,.21-1.77,.21-2.83,0-2.16-.82-3.94-2.45-5.35-1.63-1.4-3.53-2.1-5.69-2.1-2.81,0-5.37,.85-7.69,2.55-2.32,1.7-3.95,4.76-4.86,9.18l-5.85,27.6h-.15c-.55,1.93-1.3,3.5-2.24,4.69-.94,1.2-2.06,1.79-3.35,1.79-1.89,0-2.83-.99-2.83-2.97,0-.78,.09-1.52,.28-2.21l4.97-23.46h-9.94l-.76,3.66v-.48c0-1.06-.46-1.91-1.38-2.55-.92-.64-2.32-.97-4.21-.97-3.73,0-6.93,1.3-9.62,3.9-2.69,2.6-4.72,5.77-6.07,9.52s-2.04,7.33-2.04,10.73c0,3.82,.88,6.62,2.62,8.42,1.75,1.79,3.93,2.69,6.56,2.69,2.25,0,4.2-.59,5.83-1.76,1.63-1.17,3.12-2.7,4.45-4.59,.23,2.07,.93,3.65,2.1,4.73,1.17,1.08,2.73,1.62,4.66,1.62,2.53,0,5.05-.88,7.56-2.66,.61-.43,1.2-.96,1.76-1.58l-.69,3.28c-2.67,.83-4.81,1.62-6.42,2.38-1.61,.76-2.92,1.78-3.93,3.07-1.01,1.29-1.52,2.92-1.52,4.9,0,2.16,.82,3.94,2.45,5.35s3.53,2.1,5.69,2.1c2.81,0,5.34-.84,7.59-2.52,2.25-1.68,3.84-4.75,4.76-9.21l7.94-37.26h5.11l.48-2.76Zm-37.6,22.15c-.41,1.89-1.18,3.37-2.31,4.45-1.13,1.08-2.27,1.62-3.42,1.62-.97,0-1.78-.32-2.45-.97-.67-.64-1-2.12-1-4.42s.41-4.96,1.24-7.97c.83-3.01,1.98-5.59,3.45-7.73,1.47-2.14,3.13-3.21,4.97-3.21,.97,0,1.68,.29,2.14,.86,.46,.58,.69,1.16,.69,1.76l-3.31,15.59Zm14.07,18.08c-.78,3.59-2.09,5.38-3.93,5.38-.74,0-1.38-.24-1.93-.72-.55-.48-.83-1-.83-1.55,0-1.75,.66-3.16,1.97-4.24,1.31-1.08,3.19-2.04,5.62-2.86l-.9,4Z"/>
      <path class="cls-2" d="M451.69,59.36c-1.77,1.15-3.9,1.72-6.38,1.72-1.75,0-3.01-.4-3.79-1.21-.78-.8-1.17-2.33-1.17-4.59,0-.46,.04-1.38,.14-2.76,2.76-.18,5.36-.93,7.8-2.24,2.44-1.31,4.39-3.05,5.87-5.21,1.47-2.16,2.21-4.53,2.21-7.11,0-4.42-2.53-6.62-7.59-6.62-4.33,0-7.89,1.39-10.7,4.17-2.81,2.78-4.83,6.08-6.07,9.9-1.24,3.82-1.86,7.31-1.86,10.49,0,3.77,.94,6.54,2.83,8.31,1.89,1.77,4.53,2.66,7.94,2.66,7.54,0,13.87-4.25,18.97-12.76h-2.35c-2.12,2.35-4.06,4.09-5.83,5.24Zm-7.24-20.01c1.59-2.9,3.21-4.35,4.86-4.35,1.15,0,1.72,.94,1.72,2.83s-.47,3.68-1.41,5.38c-.94,1.7-2.19,3.1-3.73,4.21s-3.16,1.7-4.86,1.79c.69-3.68,1.83-6.97,3.42-9.87Z"/>
    </g>
    <polygon class="cls-2" points="460.31 13.93 453.06 13.93 446.78 26.97 451.96 26.97 460.31 13.93"/>
  </g>
  <polygon class="cls-1" points="458.94 13.71 451.69 13.71 445.41 26.75 450.59 26.75 458.94 13.71"/>
  <path class="cls-1" d="M50.84,37.07c3.11-1.75,5.51-4.02,7.19-6.8,1.68-2.79,2.53-5.67,2.53-8.65,0-2.79-.76-5.35-2.29-7.68-1.52-2.33-3.84-4.21-6.95-5.64-3.11-1.42-6.93-2.14-11.47-2.14-6.03,0-11.76,1.21-17.2,3.64s-9.82,5.62-13.12,9.57c-3.3,3.95-4.96,8.13-4.96,12.54,0,3.18,.87,5.46,2.62,6.85,1.75,1.39,4.34,2.09,7.78,2.09,0-.13-.23-.66-.68-1.6-.45-.94-.68-2.61-.68-5.01,0-5.05,1.18-9.36,3.55-12.93,2.36-3.56,5.43-6.24,9.19-8.02,3.76-1.78,7.61-2.67,11.57-2.67,4.34,0,7.57,1.01,9.67,3.01,2.1,2.01,3.16,4.5,3.16,7.48,0,2.46-.65,4.91-1.94,7.34s-3.01,4.44-5.15,6.03c-2.14,1.59-4.44,2.38-6.9,2.38h-.58l4.57-21.58-14.39,1.94-13.22,61.82h14l7.97-37.23c1.23-.19,2.72-.29,4.47-.29,6.16,0,9.23,4.12,9.23,12.34,0,4.41-.79,8.42-2.38,12.05-1.59,3.63-4,5.44-7.24,5.44-1.17,0-2.25-.26-3.26-.78-1-.52-2.09-1.42-3.26-2.72-.84,2.07-1.26,3.95-1.26,5.64,0,2.66,.95,4.52,2.87,5.59,1.91,1.07,4.16,1.6,6.76,1.6,4.99,0,9.09-1.57,12.3-4.71,3.21-3.14,5.51-6.89,6.9-11.23,1.39-4.34,2.09-8.36,2.09-12.05,0-3.95-.94-7.37-2.82-10.25-1.88-2.88-4.76-4.68-8.65-5.39Z"/>
  <path class="cls-1" d="M156.09,58.7c-.83,.99-1.93,1.48-3.31,1.48-1.79,0-2.69-.85-2.69-2.55,0-.64,.11-1.38,.34-2.21l.76-3.45c.18-.78,.28-1.66,.28-2.62,0-2.35-.64-4.28-1.93-5.8-1.29-1.52-3.17-2.28-5.66-2.28-.83,0-1.59,.09-2.28,.28l13.8-9.59h-6.83l-13.32,10.49,5.17-24.29-10.21,1.38-4.62,21.65c-.1,.04-.19,.08-.28,.12-1.98,.81-3.73,1.21-5.24,1.21-.37,0-.62-.02-.76-.07v-.07c0-7.36-2.94-11.04-8.83-11.04-4.33,0-7.91,1.39-10.76,4.17-1.73,1.69-3.16,3.57-4.32,5.63-.13,.05-.25,.11-.37,.16-1.98,.81-3.73,1.21-5.24,1.21-.37,0-.62-.02-.76-.07v-.07c0-7.36-2.94-11.04-8.83-11.04-4.33,0-7.91,1.39-10.76,4.17-2.85,2.78-4.92,6.08-6.21,9.9-1.29,3.82-1.93,7.29-1.93,10.42,0,3.77,.99,6.53,2.97,8.28,1.98,1.75,4.67,2.62,8.07,2.62,2.8,0,5.4-.85,7.8-2.55,2.39-1.7,4.35-4.12,5.87-7.25,1.52-3.13,2.46-6.79,2.83-10.97,1.75-.29,3.4-.72,4.96-1.28-.09,.24-.19,.48-.27,.73-1.29,3.82-1.93,7.29-1.93,10.42,0,3.77,.99,6.53,2.97,8.28,1.98,1.75,4.67,2.62,8.07,2.62,2.8,0,5.4-.85,7.8-2.55,2.39-1.7,4.35-4.12,5.87-7.25,1.52-3.13,2.46-6.79,2.83-10.97,2.07-.34,4.01-.88,5.82-1.61l-4.71,22.1h9.94l3.59-17.04c1.06-.87,1.99-1.52,2.79-1.93s1.58-.62,2.31-.62c1.66,0,2.48,1.1,2.48,3.31,0,.92-.09,1.77-.28,2.55l-.55,2.69c-.28,1.29-.41,2.48-.41,3.59,0,2.53,.74,4.47,2.21,5.83,1.47,1.36,3.63,2.04,6.49,2.04,5.61,0,9.84-4.25,12.7-12.76h-2.9c-.83,2.07-1.66,3.6-2.48,4.59Zm-73-12.52c-.37,2.67-.97,5.1-1.79,7.28s-1.79,3.91-2.9,5.17c-1.1,1.27-2.21,1.9-3.31,1.9-1.33,0-2.25-.38-2.76-1.14-.51-.76-.76-2.24-.76-4.45,0-2.35,.44-5.06,1.31-8.14,.87-3.08,2.02-5.73,3.45-7.94,1.42-2.21,2.9-3.31,4.42-3.31,.92,0,1.56,.29,1.93,.86,.37,.58,.6,1.62,.69,3.14-1.43,.6-2.14,1.84-2.14,3.73,0,1.66,.62,2.62,1.86,2.9Zm30.29,0c-.37,2.67-.97,5.1-1.79,7.28s-1.79,3.91-2.9,5.17c-1.1,1.27-2.21,1.9-3.31,1.9-1.33,0-2.25-.38-2.76-1.14-.51-.76-.76-2.24-.76-4.45,0-2.35,.44-5.06,1.31-8.14,.87-3.08,2.02-5.73,3.45-7.94,1.42-2.21,2.9-3.31,4.42-3.31,.92,0,1.56,.29,1.93,.86,.37,.58,.6,1.62,.69,3.14-1.43,.6-2.14,1.84-2.14,3.73,0,1.66,.62,2.62,1.86,2.9Z"/>
  <path class="cls-1" d="M236.01,11.14l-17.82,51.94-.76-51.94h-10.78l-17.82,51.94-.76-52.19c-1.47-.11-2.6-.17-3.39-.17-4.64,0-9.28,1.06-13.92,3.18-4.64,2.12-8.45,4.89-11.42,8.32-2.97,3.42-4.46,6.95-4.46,10.57,0,2.94,.75,5.05,2.25,6.32s3.78,1.91,6.83,1.91c0-.11-.2-.58-.59-1.4-.4-.82-.59-2.28-.59-4.37,0-4.64,1.1-8.56,3.31-11.75,2.21-3.2,5.32-5.56,9.34-7.09l1.36,57.97h12.22l16.12-43.2,1.02,43.2h12.22l23.59-63.23h-5.94Z"/>
  <path class="cls-1" d="M285.05,36.14c0-1.43-.43-2.64-1.28-3.66-.85-1.01-2.01-1.52-3.48-1.52s-2.84,.37-4.11,1.1c-1.27,.74-2.68,1.79-4.24,3.17l.9-4.28h-9.94l-1.96,9.24c-.08,.04-.16,.07-.25,.11-1.98,.81-3.73,1.21-5.24,1.21-.37,0-.62-.02-.76-.07v-.07c0-7.36-2.94-11.04-8.83-11.04-4.33,0-7.91,1.39-10.76,4.17-2.85,2.78-4.92,6.08-6.21,9.9-1.29,3.82-1.93,7.29-1.93,10.42,0,3.77,.99,6.53,2.97,8.28,1.98,1.75,4.67,2.62,8.07,2.62,2.8,0,5.4-.85,7.8-2.55,2.39-1.7,4.35-4.12,5.87-7.25,1.52-3.13,2.46-6.79,2.83-10.97,2.06-.34,3.98-.88,5.79-1.59l-4.68,22.09h9.94l5.52-26.22c1.06-.97,1.92-1.64,2.59-2.04,.67-.39,1.48-.59,2.45-.59,.37,0,.62,.14,.76,.41,.14,.28,.28,.71,.41,1.31,.18,.92,.45,1.62,.79,2.1,.34,.48,1.02,.72,2.04,.72,1.56,0,2.78-.51,3.66-1.52,.87-1.01,1.31-2.18,1.31-3.52Zm-36.29,9.04c-.37,2.67-.97,5.1-1.79,7.28s-1.79,3.91-2.9,5.17c-1.1,1.27-2.21,1.9-3.31,1.9-1.33,0-2.25-.38-2.76-1.14-.51-.76-.76-2.24-.76-4.45,0-2.35,.44-5.06,1.31-8.14,.87-3.08,2.02-5.73,3.45-7.94,1.42-2.21,2.9-3.31,4.42-3.31,.92,0,1.56,.29,1.93,.86,.37,.58,.6,1.62,.69,3.14-1.43,.6-2.14,1.84-2.14,3.73,0,1.66,.62,2.62,1.86,2.9Z"/>
  <path class="cls-1" d="M333.56,57.7c-.83,.99-1.93,1.48-3.31,1.48-1.01,0-1.72-.25-2.14-.76-.41-.5-.62-1.22-.62-2.14,0-.78,.15-1.85,.45-3.21,.3-1.36,.63-2.75,1-4.17,.6-2.35,1.06-4.33,1.38-5.97,.32-1.63,.48-3.12,.48-4.45,0-2.62-.69-4.58-2.07-5.87-1.38-1.29-3.24-1.93-5.59-1.93-3.86,0-7.06,1.96-9.59,5.86-.69-3.96-3.06-5.93-7.11-5.93-3.27,0-6.07,1.31-8.42,3.93l.76-3.59h-9.94l-7.31,34.5h9.94l4.69-22.15c.55-1.93,1.3-3.48,2.24-4.66,.94-1.17,2.06-1.76,3.35-1.76,1.38,0,2.07,1.01,2.07,3.04,0,.6-.07,1.17-.21,1.72l-5.04,23.8h9.94l4.69-22.15c.55-1.89,1.29-3.42,2.21-4.59,.92-1.17,1.98-1.76,3.17-1.76,1.66,0,2.48,1.17,2.48,3.52,0,.97-.16,2.23-.48,3.79-.32,1.56-.67,3.15-1.03,4.76-.09,.32-.27,1.06-.52,2.21-.25,1.15-.5,2.33-.72,3.55-.23,1.22-.35,2.31-.35,3.28,0,2.21,.66,4.06,1.97,5.55,1.31,1.5,3.37,2.24,6.18,2.24,2.39,0,4.7-.86,6.93-2.59,2.23-1.73,4.2-5.12,5.9-10.18h-2.9c-.83,2.07-1.66,3.6-2.48,4.59Z"/>
  <path class="cls-1" d="M368.81,25.41c1.17,1.45,2.75,2.17,4.76,2.17s3.48-.68,4.43-2.05c.95-1.36,1.42-3.24,1.42-5.64,0-3.79-1.28-6.6-3.84-8.43-2.56-1.84-5.93-2.76-10.1-2.76-6.74,0-12.29,2.41-16.66,7.22-4.37,4.82-7.54,10.59-9.52,17.33-1.98,6.74-2.97,13.03-2.97,18.87,0,7.35,1.47,12.61,4.43,15.78,2.95,3.17,7.57,4.76,13.86,4.76,2.78,0,5.73-.54,8.85-1.63,3.12-1.09,6.04-2.8,8.77-5.13,2.73-2.34,4.79-5.26,6.18-8.77l-1.92-.84c-2,2.67-4.4,4.73-7.18,6.18-2.78,1.45-5.82,2.17-9.1,2.17-3.79,0-6.4-1.11-7.85-3.34s-2.17-5.46-2.17-9.69c0-5.68,.82-11.58,2.46-17.7,1.64-6.12,3.8-11.2,6.47-15.24,2.67-4.04,5.48-6.05,8.43-6.05,1.78,0,3.08,.47,3.88,1.42,.81,.95,1.21,2.17,1.21,3.67,0,1.61-.39,3.17-1.17,4.68-.78,1.5-1.67,2.51-2.67,3.01Z"/>
  <path class="cls-1" d="M433.41,30.96h-5.04l1.17-5.45c.41-2.07,1.08-3.53,2-4.38,.92-.85,1.86-1.28,2.83-1.28,.74,0,1.36,.21,1.86,.62,.51,.41,.76,.99,.76,1.72,0,.23-.05,.85-.14,1.86h3.24c.14-.83,.21-1.77,.21-2.83,0-2.16-.82-3.94-2.45-5.35-1.63-1.4-3.53-2.1-5.69-2.1-2.81,0-5.37,.85-7.69,2.55-2.32,1.7-3.95,4.76-4.86,9.18l-5.85,27.6h-.15c-.55,1.93-1.3,3.5-2.24,4.69-.94,1.2-2.06,1.79-3.35,1.79-1.89,0-2.83-.99-2.83-2.97,0-.78,.09-1.52,.28-2.21l4.97-23.46h-9.94l-.76,3.66v-.48c0-1.06-.46-1.91-1.38-2.55-.92-.64-2.32-.97-4.21-.97-3.73,0-6.93,1.3-9.62,3.9-2.69,2.6-4.72,5.77-6.07,9.52s-2.04,7.33-2.04,10.73c0,3.82,.88,6.62,2.62,8.42,1.75,1.79,3.93,2.69,6.56,2.69,2.25,0,4.2-.59,5.83-1.76,1.63-1.17,3.12-2.7,4.45-4.59,.23,2.07,.93,3.65,2.1,4.73,1.17,1.08,2.73,1.62,4.66,1.62,2.53,0,5.05-.88,7.56-2.66,.61-.43,1.2-.96,1.76-1.58l-.69,3.28c-2.67,.83-4.81,1.62-6.42,2.38-1.61,.76-2.92,1.78-3.93,3.07-1.01,1.29-1.52,2.92-1.52,4.9,0,2.16,.82,3.94,2.45,5.35s3.53,2.1,5.69,2.1c2.81,0,5.34-.84,7.59-2.52,2.25-1.68,3.84-4.75,4.76-9.21l7.94-37.26h5.11l.48-2.76Zm-37.6,22.15c-.41,1.89-1.18,3.37-2.31,4.45-1.13,1.08-2.27,1.62-3.42,1.62-.97,0-1.78-.32-2.45-.97-.67-.64-1-2.12-1-4.42s.41-4.96,1.24-7.97c.83-3.01,1.98-5.59,3.45-7.73,1.47-2.14,3.13-3.21,4.97-3.21,.97,0,1.68,.29,2.14,.86,.46,.58,.69,1.16,.69,1.76l-3.31,15.59Zm14.07,18.08c-.78,3.59-2.09,5.38-3.93,5.38-.74,0-1.38-.24-1.93-.72-.55-.48-.83-1-.83-1.55,0-1.75,.66-3.16,1.97-4.24,1.31-1.08,3.19-2.04,5.62-2.86l-.9,4Z"/>
  <path class="cls-1" d="M450.69,58.36c-1.77,1.15-3.9,1.72-6.38,1.72-1.75,0-3.01-.4-3.79-1.21-.78-.8-1.17-2.33-1.17-4.59,0-.46,.04-1.38,.14-2.76,2.76-.18,5.36-.93,7.8-2.24,2.44-1.31,4.39-3.05,5.87-5.21,1.47-2.16,2.21-4.53,2.21-7.11,0-4.42-2.53-6.62-7.59-6.62-4.33,0-7.89,1.39-10.7,4.17-2.81,2.78-4.83,6.08-6.07,9.9-1.24,3.82-1.86,7.31-1.86,10.49,0,3.77,.94,6.54,2.83,8.31,1.89,1.77,4.53,2.66,7.94,2.66,7.54,0,13.87-4.25,18.97-12.76h-2.35c-2.12,2.35-4.06,4.09-5.83,5.24Zm-7.24-20.01c1.59-2.9,3.21-4.35,4.86-4.35,1.15,0,1.72,.94,1.72,2.83s-.47,3.68-1.41,5.38c-.94,1.7-2.19,3.1-3.73,4.21s-3.16,1.7-4.86,1.79c.69-3.68,1.83-6.97,3.42-9.87Z"/>
</svg>