<?xml version="1.0" encoding="utf-8"?>
<!-- Generator: Adobe Illustrator 27.0.1, SVG Export Plug-In . SVG Version: 6.00 Build 0)  -->
<svg version="1.1" id="Layer_1" xmlns="http://www.w3.org/2000/svg" xmlns:xlink="http://www.w3.org/1999/xlink" x="0px" y="0px"
	 viewBox="0 0 108 47.6" style="enable-background:new 0 0 108 47.6;" xml:space="preserve">
<style type="text/css">
	.st0{fill:#F69A9A;stroke:#3C2415;stroke-width:0.1;stroke-miterlimit:10;}
	.st1{fill:#EF4566;stroke:#3C2415;stroke-width:0.1;stroke-miterlimit:10;}
	.st2{fill:#83AE9A;stroke:#3C2415;stroke-width:0.1;stroke-miterlimit:10;}
	.st3{fill:#C7C8A9;stroke:#3C2415;stroke-width:0.1;stroke-miterlimit:10;}
	.st4{fill:#F8CDAE;stroke:#3C2415;stroke-width:0.1;stroke-miterlimit:10;}
</style>
<path class="st0" d="M94.8,36.4c0,0,1.8,1.6,4.2,0.5c2.4-1.1-0.1-4-0.1-4"/>
<path class="st0" d="M89.7,41.7c0,0,0.6,2,2.7,1.6c2.1-0.4,1.3-3.6,1.3-3.6"/>
<path class="st0" d="M82.8,43.6c0,0,1.4,1.3,2.8,1.2s1.1-2.2,1.1-2.2"/>
<path class="st0" d="M76.2,43.5c0,0-1.8,2.5,1.5,1.5c3.2-1,1.8-2.6,1.8-2.6"/>
<path class="st0" d="M67.9,42.2c0,0-3,3.6,0.1,3.1c3-0.5,2.7-1.9,2.7-1.9"/>
<path class="st0" d="M57.9,39.3c-0.2,2.7,0.9,3.8,2.5,3.6s1.8-2.5,1.8-2.5"/>
<path class="st0" d="M43.5,39c0,0,1.7,0.6,3.4-0.1c1.7-0.6-1.3-3.2-1.3-3.2"/>
<path class="st0" d="M34.1,44.9c0,0,0.3,2,2.8,1.3c2.4-0.7-0.1-3.9-0.1-3.9"/>
<path class="st0" d="M23.6,44.4c0,0-0.1,3.6,2.6,3s1.8-2.3,1.8-2.3"/>
<path class="st0" d="M12.8,42.9c-0.4,0.6-0.5,4.5,2.1,4s1.6-2.5,1.6-2.5"/>
<path class="st1" d="M5.7,15.2c0,0-2.4-4.3,5.2-4.6c7.5-0.4,4.2,7.1,4.2,7.1"/>
<path class="st2" d="M0.4,23.8c0,0-0.7-1.9,0.5-5.3c1.2-3.4,8.2-3.8,8.2-3.8c6.7-1.4,6.7,7.2,6.7,7.2"/>
<path class="st3" d="M2.5,30.4c-3.7,0.4-2.1-6.7-2.1-6.7s5-5.1,11.3-3.7s7,6.7,7,6.7"/>
<path class="st4" d="M10.9,41.8c0,0-7.2,2.7-8.3-8.8c-1.2-11.5,16.2-6.2,16.2-6.2"/>
<path class="st0" d="M23.6,44.4c-6.3,0.7-18.6-1.5-14.5-11s14.7-6,14.7-6"/>
<path class="st1" d="M36.8,42.3c-4.2,4.8-13.1,2.1-13.1,2.1c-15.3-7.3,0.2-17.1,0.2-17.1"/>
<path class="st2" d="M46.7,33.6c0,0-4.9,11.1-14.4,8.2s-8.5-12.2-8.5-14.5c-0.1-2.3,6.9-4.1,6.9-4.1"/>
<path class="st3" d="M48.6,32.3c-5.9,4.6-6.6,3-12.5,2.7s-7.4-7-5.4-11.7c2-4.7,10-4.9,10-4.9"/>
<path class="st4" d="M48.6,32.3c-3.2-0.2-16.4-1.2-9.6-11.7S58.3,18,58.3,18"/>
<path class="st0" d="M54.3,35.3c-5,0.1-12.7-8.6-3.2-15c9.4-6.3,17.4,2.1,17.4,2.1"/>
<path class="st1" d="M65.7,40.2c-7.2,1.7-11.4-4.9-11.4-4.9s-4.5-7.1,5-11.3s14,1.5,14,1.5"/>
<path class="st2" d="M79.5,42.4C69,47.2,60.8,38.2,63.9,30.5s13.3-4.2,13.3-4.2"/>
<path class="st3" d="M77.2,26.3c-7,2.4-5.2,8.4-5.2,8.4s2.7,9.2,12.7,8.2c10-1.1,10.1-6.5,10.1-6.5"/>
<path class="st4" d="M79,23.5c-6.6,12,7.5,13.5,13.8,12.9c6.3-0.6,8.7-8.4,8.7-8.4"/>
<path class="st0" d="M90.5,8.1c-13.3,2.2-7.2,6.2-10.3,8.7c-3.1,2.5-1.2,6.7-1.2,6.7s8.1,13,22.5,4.5c14.4-8.5,0.3-13.9,0.3-13.9
	S103.9,5.8,90.5,8.1z"/>
<path class="st4" d="M90.5,8.1c0,0-6.8-3.5-6-5.4c0.7-2-3.7-1.9-3.6,0.1s2.9,1.9,2.9,1.9l2.8,4.3"/>
<path class="st4" d="M95.4,7.7c0,0,2.1-3.2,3.6-3.9c1.5-0.7,1.2-3.3-1.1-3.7c-2.4-0.4-1.7,2.6-1.7,2.6l-3.3,5"/>
</svg>
